<?xml version="1.0" encoding="utf-8"?>
<!-- Generator: Adobe Illustrator 23.0.3, SVG Export Plug-In . SVG Version: 6.00 Build 0)  -->
<svg version="1.1" id="レイヤー_1" xmlns="http://www.w3.org/2000/svg" xmlns:xlink="http://www.w3.org/1999/xlink" x="0px"
	 y="0px" width="80px" height="80px" viewBox="0 0 80 80" style="enable-background:new 0 0 80 80;" xml:space="preserve">
<style type="text/css">
	.st0{fill:#EEEEEE;}
	.st1{fill:#242424;}
	.st2{fill:#FFAA00;}
	.st3{fill:#00FFFF;}
	.st4{fill:#FFFFFF;}
	.st5{fill:#FF0033;}
	.st6{fill:#0088FF;}
	.st7{fill:#AF9C4A;}
	.st8{fill:#333333;}
	.st9{fill:#00FF00;}
</style>
<g>
	<path class="st0" d="M77.611,63.166c0,0.649-0.531,1.18-1.18,1.18H4.548c-0.649,0-1.18-0.531-1.18-1.18V18.713
		c0-0.649,0.531-1.18,1.18-1.18h71.883c0.649,0,1.18,0.531,1.18,1.18V63.166z"/>
</g>
<rect x="37.739" y="26.985" class="st1" width="39.652" height="23.403"/>
<path class="st2" d="M12.991,36.671c0-0.285-0.233-0.517-0.517-0.517H6.437c-0.285,0-0.517,0.233-0.517,0.517v9.816
	c0,0.285,0,0.653,0,0.818c0,0,0,0,0,0.153c0,2.286,1.583,4.14,3.536,4.14s3.536-1.853,3.536-4.14c0-0.153,0-0.153,0-0.153
	c0-0.165,0-0.533,0-0.818v-9.816H12.991z"/>
<circle class="st3" cx="24.774" cy="43.459" r="7.854"/>
<g>
	<circle class="st4" cx="24.774" cy="43.459" r="3.981"/>
</g>
<rect x="3.368" y="59.133" class="st5" width="74.244" height="4.212"/>
<rect x="3.368" y="53.593" class="st6" width="74.244" height="4.212"/>
<rect x="63.383" y="34.729" class="st7" width="14.008" height="8.043"/>
<rect x="67.162" y="27.708" class="st0" width="6.451" height="6.451"/>
<rect x="14.772" y="53.37" class="st1" width="10.211" height="10.211"/>
<rect x="67.162" y="43.397" class="st0" width="6.451" height="6.451"/>
<circle class="st8" cx="10.305" cy="22.856" r="1.491"/>
<circle class="st8" cx="20.2" cy="22.856" r="1.491"/>
<circle class="st1" cx="39.992" cy="22.856" r="1.491"/>
<circle class="st1" cx="49.888" cy="22.856" r="1.491"/>
<circle class="st1" cx="59.783" cy="22.856" r="1.491"/>
<circle class="st1" cx="69.679" cy="22.856" r="1.491"/>
<circle class="st9" cx="33.248" cy="23.636" r="3.585"/>
<rect x="37.739" y="31.091" class="st7" width="16.355" height="14.806"/>
<circle class="st0" cx="19.877" cy="58.476" r="3.387"/>
<path class="st6" d="M27.642,18.953H5.283c-0.3,0-0.545,0.245-0.545,0.545v13.504c0,0.3,0.245,0.545,0.545,0.545h3.229v-3.946h2.969
	v3.946h3.498v-3.946h2.969v3.946h3.498v-3.946h2.969v3.946h3.229c0.3,0,0.545-0.245,0.545-0.545V19.498
	C28.187,19.198,27.942,18.953,27.642,18.953z"/>
</svg>
