<?xml version="1.0" encoding="utf-8"?>
<!-- Generator: Adobe Illustrator 23.0.3, SVG Export Plug-In . SVG Version: 6.00 Build 0)  -->
<svg version="1.1" id="レイヤー_1" xmlns="http://www.w3.org/2000/svg" xmlns:xlink="http://www.w3.org/1999/xlink" x="0px"
	 y="0px" width="80px" height="80px" viewBox="0 0 80 80" style="enable-background:new 0 0 80 80;" xml:space="preserve">
<style type="text/css">
	.st0{stroke:#000000;stroke-width:0.2427;stroke-miterlimit:10;}
	.st1{fill:#999999;}
	.st2{fill:#DB8509;}
	.st3{fill:#FCC25B;}
	.st4{fill:#1A1A1A;}
	.st5{fill:#00FF00;}
	.st6{fill:#F2F2F2;}
	.st7{fill:#B3B3B3;}
	.st8{fill:#242424;}
	.st9{fill:#FFF6D2;}
	.st10{fill:#AF9C4A;}
	.st11{fill:#FFFFFF;}
	.st12{fill:#4B4B4B;}
	.st13{fill:#CCCCCC;}
	.st14{fill:#333333;}
	.st15{fill:#FF0033;}
	.st16{fill:#FFDC48;}
	.st17{fill:#666666;}
	.st18{fill:#4D4D4D;}
	.st19{fill:#0000FF;}
	.st20{fill:#E6E6E6;}
	.st21{fill:#00FFFF;}
</style>
<g>
	<g>
		<path class="st0" d="M35.2,29.3l-6-4.1c-2-1.3-4.4-2.1-6.9-2.1c-6.8,0-12.4,5.5-12.4,12.4c0,4.1,2,7.8,5.1,10l5.9,4.3l1.3-1.9
			c6.8,0,12.3-5.5,12.3-12.4c0-1.5-0.3-2.9-0.7-4.2L35.2,29.3z"/>
	</g>
	<g>
		<path d="M28.1,26.9c-6.9,0-12.6,5.6-12.6,12.6c0,6.9,5.6,12.6,12.6,12.6c6.9,0,12.6-5.6,12.6-12.6C40.7,32.5,35,26.9,28.1,26.9z"
			/>
	</g>
	<g>
		<path class="st1" d="M18.3,47.1c-1.2-1.9-2.3-4.8-2.3-7.3c0-6.9,5.6-12.6,12.5-12.6c1.7,0,3.4,0.2,4.9,0.8l-0.4-0.3
			c-1.5-0.6-3.2-1-4.9-1c-6.9,0-12.5,5.7-12.5,12.6c0,2.6,1,5.3,2.3,7.3L18.3,47.1z"/>
		<path class="st1" d="M32.9,27.8"/>
	</g>
</g>
<path class="st2" d="M29.9,54l44.2-13.5l4.8-1.5c0-0.1-0.1-2.5-0.1-2.7c-0.5-2.3-3-4.8-7.2-7.7c-4.5-3.1-9.8-5.5-14.4-6.5l-4.8,1.4
	L8.2,37.2L29.9,54z"/>
<path class="st3" d="M29.8,51.4L74,37.9l4.8-1.5c-0.2-2.3-2.8-5.5-7.2-8.7c-4.5-3.1-9.8-5.5-14.4-6.5l-4.8,1.4L8.2,36.2L29.8,51.4z"
	/>
<path class="st4" d="M71,30.5c-0.1-0.5-0.4-1.1-0.8-1.3l-10.1-7c-0.4-0.3-1,0.1-1,0.4c0,0,0,0.7,0,0.8l0,2.1l12,8.2L71,30.5L71,30.5
	z"/>
<path class="st4" d="M59.5,22.7c-0.1-0.3-0.4-0.4-0.8-0.3l-12.1,3.9c-0.3,0.1-0.6,0.4-0.8,0.8l-0.1,0.4c0,0,0,0.1,0,0.1l0,0.6
	c0,0,0,0.1,0,0.1l0,1.5l13.8-4.4L59.5,22.7z"/>
<polygon class="st4" points="70.6,31.5 56.6,36 45.8,28.3 59.8,23.8 "/>
<path class="st5" d="M48.8,30.6c0,0,12.2-3.8,12.4-4.1c0.6-0.8,0.5-1.9-0.2-2.6c-0.5-0.4-1.1-0.5-1.6-0.4L47.9,27l0.1,0.3
	c-0.6,0.8-0.5,1.9,0.2,2.6c0.2,0.1,0.4,0.2,0.5,0.3L48.8,30.6z"/>
<ellipse transform="matrix(0.6386 -0.7696 0.7696 0.6386 -4.6952 47.6027)" class="st5" cx="48.3" cy="28.8" rx="1.8" ry="1.8"/>
<g>
	<path class="st6" d="M48.3,30.2c-0.3,0-0.7-0.1-0.9-0.3c-0.3-0.2-0.5-0.6-0.5-1c0-0.4,0.1-0.8,0.3-1.1c0.3-0.3,0.7-0.5,1.1-0.5
		c0.3,0,0.7,0.1,0.9,0.3c0.3,0.2,0.5,0.6,0.5,1c0,0.4-0.1,0.8-0.3,1.1C49.2,30.1,48.8,30.2,48.3,30.2z"/>
</g>
<path class="st5" d="M51.7,32.4c0,0,12.2-3.8,12.4-4.1c0.6-0.8,0.5-1.9-0.2-2.6c-0.5-0.4-1.1-0.5-1.6-0.4l-11.5,3.4l0.1,0.3
	c-0.6,0.8-0.5,1.9,0.2,2.6c0.2,0.1,0.4,0.2,0.5,0.3L51.7,32.4z"/>
<ellipse transform="matrix(0.6386 -0.7696 0.7696 0.6386 -5.0803 50.4273)" class="st5" cx="51.1" cy="30.6" rx="1.8" ry="1.8"/>
<g>
	<path class="st6" d="M51.1,32.1c-0.3,0-0.7-0.1-0.9-0.3c-0.6-0.5-0.7-1.4-0.2-2c0.3-0.3,0.7-0.5,1.1-0.5c0.3,0,0.7,0.1,0.9,0.3
		c0.3,0.2,0.5,0.6,0.5,1c0,0.4-0.1,0.8-0.3,1.1C52,31.9,51.6,32.1,51.1,32.1z"/>
</g>
<path class="st5" d="M54.5,34.2c0,0,12.2-3.8,12.4-4.1c0.6-0.8,0.5-1.9-0.2-2.6c-0.5-0.4-1.1-0.5-1.6-0.4l-11.5,3.4l0.1,0.3
	c-0.6,0.8-0.5,1.9,0.2,2.6c0.2,0.1,0.4,0.2,0.5,0.3L54.5,34.2z"/>
<ellipse transform="matrix(0.6386 -0.7696 0.7696 0.6386 -5.4654 53.2519)" class="st5" cx="54" cy="32.4" rx="1.8" ry="1.8"/>
<g>
	<path class="st6" d="M54,33.9c-0.3,0-0.7-0.1-0.9-0.3c-0.6-0.5-0.7-1.4-0.2-2c0.3-0.3,0.7-0.5,1.1-0.5c0.3,0,0.7,0.1,0.9,0.3
		c0.6,0.5,0.7,1.4,0.2,2C54.8,33.7,54.4,33.9,54,33.9z"/>
</g>
<path class="st5" d="M57.3,36.2c0,0,12.2-3.8,12.4-4.1c0.6-0.8,0.5-1.9-0.2-2.6c-0.5-0.4-1.1-0.5-1.6-0.4l-11.5,3.4l0.1,0.3
	c-0.6,0.8-0.5,1.9,0.2,2.6c0.2,0.1,0.4,0.2,0.5,0.3L57.3,36.2z"/>
<ellipse transform="matrix(0.6386 -0.7696 0.7696 0.6386 -5.9717 56.1352)" class="st5" cx="56.8" cy="34.4" rx="1.8" ry="1.8"/>
<g>
	<path class="st6" d="M56.8,35.9c-0.3,0-0.7-0.1-0.9-0.3c-0.6-0.5-0.7-1.4-0.2-2c0.3-0.3,0.7-0.5,1.1-0.5c0.3,0,0.7,0.1,0.9,0.3
		c0.6,0.5,0.7,1.4,0.2,2C57.6,35.7,57.2,35.9,56.8,35.9z"/>
</g>
<path d="M71,31.2c-0.1-0.3-0.4-0.4-0.8-0.3l-12.1,3.9c-0.3,0.1-0.6,0.4-0.8,0.8l-0.1,0.4c0,0,0,0.1,0,0.1l0,0.6c0,0,0,0.1,0,0.1
	l0,1.5l13.8-4.4L71,31.2z"/>
<path d="M57.3,35c-0.1-0.5-0.4-1.1-0.8-1.3l-10-7.1c-0.4-0.3-1,0.1-1,0.3c0,0,0,0.7,0,0.8l0,2.1l11.9,8.4L57.3,35L57.3,35z"/>
<g>
	<polygon class="st7" points="56,40.7 35.3,47.2 18.3,35.2 18.5,32.1 56.2,37.8 	"/>
	<g>
		<polygon class="st6" points="56.2,37.8 35.7,44.3 18.5,32.1 39,25.7 		"/>
	</g>
	<g>
		<polygon class="st8" points="42.4,36.2 30.9,28.1 39.1,25.7 50.6,33.8 		"/>
		<path class="st9" d="M43.5,33.3"/>
		<polygon class="st10" points="42,33.1 45.3,35.4 48.1,34.6 44.9,32.3 		"/>
		<polygon class="st11" points="47.4,33.7 46.1,32.7 47.6,32.3 48.9,33.2 		"/>
		<polygon class="st11" points="42.1,35.2 40.7,34.2 42.2,33.8 43.6,34.8 		"/>
		<polygon class="st10" points="37.6,31.1 32.7,27.6 37.9,26.1 42.9,29.5 		"/>
	</g>
</g>
<path class="st12" d="M12.8,42.5"/>
<g>
	<polygon class="st8" points="36,41.4 35.4,41.7 30.3,35.1 30.9,34.9 36.1,38.6 	"/>
	<polygon class="st8" points="35.4,41.7 30.2,37.9 30.3,35.1 35.6,38.8 	"/>
	<polygon class="st13" points="35.3,38.3 31.3,35.5 31.3,34.3 31.9,33.9 35.4,36.3 	"/>
</g>
<g>
	<polygon class="st8" points="28.4,35.9 27.8,36.2 22.7,29.6 23.3,29.4 28.6,33.1 	"/>
	<polygon class="st8" points="27.8,36.2 22.6,32.5 22.7,29.6 28,33.3 	"/>
	<polygon class="st13" points="27.7,32.8 23.7,30 23.7,28.8 24.4,28.4 27.8,30.9 	"/>
</g>
<g>
	<path class="st14" d="M34.6,32.8v-3.3h-2.8v3.3c0,0,0,0.1,0,0.1c0,0.5,0.6,0.9,1.4,0.9C34,33.7,34.6,33.3,34.6,32.8
		C34.6,32.8,34.6,32.8,34.6,32.8z"/>
	<ellipse cx="33.2" cy="29.4" rx="1.4" ry="0.9"/>
</g>
<path class="st15" d="M48.5,32.9c-0.1-9-1.2-18.1-8-18.1c-4.7,0-6.5,4-6.5,14.1c0,0.4-0.3,0.8-0.8,0.8c-0.4,0-0.8-0.3-0.8-0.8
	c0-8.1,1-15.7,8-15.7c8.4,0,9.5,10.2,9.5,20.2c0,0.1,0,0.3-0.1,0.4L48.5,32.9z"/>
<g>
	<g>
		<path class="st0" d="M55.9,43.7l-6-4.1c-2-1.3-4.4-2.1-6.9-2.1c-6.8,0-12.4,5.5-12.4,12.4c0,4.1,2,7.8,5.1,10l5.9,4.3l1.3-1.9
			c6.8,0,12.3-5.5,12.3-12.4c0-1.5-0.3-2.9-0.7-4.2L55.9,43.7z"/>
	</g>
	<g>
		<path d="M48.8,41.3c-6.9,0-12.6,5.6-12.6,12.6c0,6.9,5.6,12.6,12.6,12.6c6.9,0,12.6-5.6,12.6-12.6C61.4,47,55.8,41.3,48.8,41.3z"
			/>
	</g>
	<path class="st16" d="M56.3,47.4c-0.9-1-2-1.8-3.2-2.3c-1.3-0.6-2.6-0.9-4-0.9c-1.4,0-2.7,0.3-4,0.9c-1.2,0.5-2.3,1.3-3.2,2.3
		c-1.6,1.8-2.5,4.1-2.5,6.5c0,0.3,0,0.7,0.1,1.1c0.1,1.3,0.6,2.6,1.2,3.7c1.4,2.4,3.7,4.1,6.4,4.7c0.7,0.1,1.3,0.2,2,0.2
		c0.7,0,1.3-0.1,2-0.2c2.7-0.6,5-2.3,6.4-4.7c0.7-1.2,1.1-2.4,1.2-3.7c0-0.4,0.1-0.7,0.1-1C58.9,51.5,58,49.2,56.3,47.4z M54.7,49.5
		c1,1.2,1.5,2.8,1.5,4.4c0,0.1,0,0.2,0,0.3c-1.1-0.1-2-0.8-2.4-1.8C53.5,51.4,53.8,50.2,54.7,49.5z M47.4,60.6
		c-1.6-0.4-3.1-1.5-4-2.9c0.4-0.3,0.9-0.4,1.4-0.4c0.6,0,1.1,0.2,1.6,0.5C47.2,58.5,47.6,59.6,47.4,60.6z M49.2,49
		c-1.1,0-2.1-0.7-2.5-1.7c0.8-0.3,1.6-0.5,2.5-0.5c0.8,0,1.7,0.2,2.5,0.5C51.3,48.4,50.3,49,49.2,49z M47.9,54.3
		c-0.1-0.4-0.1-0.7,0.1-1.1s0.5-0.6,0.8-0.7c0.1,0,0.3-0.1,0.4-0.1c0.6,0,1.1,0.4,1.3,1c0.1,0.4,0.1,0.7-0.1,1.1s-0.5,0.6-0.8,0.7
		c-0.1,0-0.3,0.1-0.4,0.1C48.6,55.3,48.1,54.9,47.9,54.3z M52.1,57.8c0.5-0.3,1-0.5,1.6-0.5c0.5,0,1,0.1,1.4,0.4
		c-0.9,1.4-2.4,2.5-4,2.9C50.8,59.6,51.2,58.5,52.1,57.8z M44.6,52.4c-0.3,1-1.3,1.8-2.4,1.8c0-0.1,0-0.2,0-0.3
		c0-1.6,0.5-3.1,1.5-4.4C44.6,50.2,44.9,51.4,44.6,52.4z"/>
	<g>
		<path class="st1" d="M39,61.5c-1.2-1.9-2.3-4.8-2.3-7.3c0-6.9,5.6-12.6,12.5-12.6c1.7,0,3.4,0.2,4.9,0.8l-0.4-0.3
			c-1.5-0.6-3.2-1-4.9-1c-6.9,0-12.5,5.7-12.5,12.6c0,2.6,1,5.3,2.3,7.3L39,61.5z"/>
		<path class="st1" d="M53.6,42.2"/>
	</g>
</g>
<path class="st2" d="M36.3,58.3c-8.3,2.7-18-1.7-26.5-8.2c-8.7-6.7-8.7-16.5-6-16.2l32.4,21.7L36.3,58.3z"/>
<path class="st3" d="M36.2,55.6c-8.3,2.7-18-1.7-26.5-8.2C1,40.7,1,32.5,3.8,32.9L36.2,55.6z"/>
<path class="st17" d="M36.4,56"/>
<polygon class="st8" points="21.4,37.2 10.4,29.4 9.9,41.6 21,49.9 "/>
<polygon class="st3" points="11.7,40.8 11.9,33.4 18.9,38.3 18.6,45.7 "/>
<polygon class="st18" points="12.9,40.2 13.1,35.8 17.6,39 17.5,43.4 "/>
<polygon class="st8" points="26.5,49.3 6.4,35.2 6.9,21.7 27,35.9 "/>
<polygon class="st19" points="24.8,46.5 7.8,34.5 8.2,24.5 25.2,36.4 "/>
<path class="st20" d="M17.2,45.2c0,0,5-2.1,5.6-2.9c1.5-2.1,1-5.1-1.1-6.6c-1.3-0.9-2.8-1.1-4.1-0.6l-3.4,1.2l0.3,0.8
	c-1.5,2.1-0.9,5.1,1.1,6.6c0.4,0.3,0.9,0.6,1.4,0.7L17.2,45.2z"/>
<path class="st17" d="M14.3,42.4c0.3,0.5,0.7,1,1.3,1.4c0.4,0.3,0.9,0.6,1.4,0.7l0.3,0.8c0,0,5-2.1,5.6-2.9c0.8-1.2,1-2.7,0.7-4
	L14.3,42.4z"/>
<ellipse class="st20" cx="15.6" cy="40.8" rx="4.6" ry="4.7"/>
<path class="st21" d="M15.4,44.8c-0.8,0-1.6-0.2-2.2-0.7c-1.7-1.3-2.2-3.7-0.9-5.5c0.7-1.1,1.9-1.7,3.2-1.7c0.8,0,1.6,0.2,2.2,0.7
	c1.7,1.3,2.2,3.7,0.9,5.5C17.9,44.1,16.7,44.8,15.4,44.8z"/>
<path class="st11" d="M12.7,42.1c-0.7-1.5-0.1-3.3,1.4-4.1c0.9-0.4,1.9-0.4,2.7,0.1c0.5,0.3,0.9,0.8,1.2,1.3L12.7,42.1z"/>
<path class="st20" d="M7.7,38.6c0,0,5-2.1,5.6-2.9c1.5-2.1,1-5.1-1.1-6.6C10.9,28.2,9.3,28,8,28.5l-3.4,1.2l0.3,0.8
	c-1.5,2.1-0.9,5.1,1.1,6.6c0.4,0.3,0.9,0.6,1.4,0.7L7.7,38.6z"/>
<path class="st17" d="M4.7,35.8c0.3,0.5,0.7,1,1.3,1.4c0.4,0.3,0.9,0.6,1.4,0.7l0.3,0.8c0,0,5-2.1,5.6-2.9c0.8-1.2,1-2.7,0.7-4
	L4.7,35.8z"/>
<ellipse class="st20" cx="6" cy="34.2" rx="4.6" ry="4.7"/>
<path class="st21" d="M5.9,38.2c-0.8,0-1.6-0.2-2.2-0.7c-1.7-1.3-2.2-3.7-0.9-5.5c0.7-1.1,1.9-1.7,3.2-1.7c0.8,0,1.6,0.2,2.2,0.7
	c1.7,1.3,2.2,3.7,0.9,5.5C8.3,37.5,7.1,38.2,5.9,38.2z"/>
<path class="st11" d="M3.2,35.5c-0.7-1.5-0.1-3.3,1.4-4.1c0.9-0.4,1.9-0.4,2.7,0.1c0.5,0.3,0.9,0.8,1.2,1.3L3.2,35.5z"/>
</svg>
